<svg xmlns="http://www.w3.org/2000/svg" width="1920" height="227.217" viewBox="0 0 1920 227.217"><g transform="translate(0 -2578.783)"><path d="M558.178,363.605a19.073,19.073,0,1,0-36.61,7.509l-.057-.062a19.089,19.089,0,0,0,3.474,5.375l.013.014c.117.128.235.255.356.379a19.015,19.015,0,0,0,13.452,5.853l-.645,35.006h1.991l-.4-23.1,2.88-1.516-.439-.835-2.459,1.295-.189-10.847a19.073,19.073,0,0,0,18.636-19.067Z" transform="translate(872.891 2355.944)" fill="#e6e6e6"/><path d="M558.178,363.605a19.073,19.073,0,1,0-36.61,7.509l-.057-.062a19.089,19.089,0,0,0,3.474,5.375l.013.014c.117.128.235.255.356.379a19.015,19.015,0,0,0,13.452,5.853l-.645,35.006h1.991l-.4-23.1,2.88-1.516-.439-.835-2.459,1.295-.189-10.847a19.073,19.073,0,0,0,18.636-19.067Z" transform="translate(916.544 2349.921)" fill="#e6e6e6"/><circle cx="19.211" cy="19.211" r="19.211" transform="translate(1670.657 2602.195)" fill="#ff69a6"/><g transform="translate(15.977 63.473)"><path d="M590.4,186.637l2.859-2.287a3.029,3.029,0,0,0-3.507,1.925,4.87,4.87,0,0,0-3.624.224l5.72,2.077A4.328,4.328,0,0,0,590.4,186.637Z" transform="translate(-157.223 2358.769)" fill="#3f3d56"/><path d="M784.98,290.878l2.859-2.287a3.029,3.029,0,0,0-3.507,1.925,4.87,4.87,0,0,0-3.624.224l5.72,2.077a4.329,4.329,0,0,0-1.448-1.939Z" transform="translate(-324.789 2268.392)" fill="#3f3d56"/><path d="M575.108,379.831l2.859-2.287a3.029,3.029,0,0,0-3.507,1.925,4.87,4.87,0,0,0-3.624.224l5.72,2.077a4.328,4.328,0,0,0-1.448-1.939Z" transform="translate(-145.351 2191.27)" fill="#3f3d56"/></g><g transform="translate(1312 86.843)"><path d="M590.4,186.637l2.859-2.287a3.029,3.029,0,0,0-3.507,1.925,4.87,4.87,0,0,0-3.624.224l5.72,2.077A4.328,4.328,0,0,0,590.4,186.637Z" transform="translate(-157.223 2358.769)" fill="#3f3d56"/><path d="M784.98,290.878l2.859-2.287a3.029,3.029,0,0,0-3.507,1.925,4.87,4.87,0,0,0-3.624.224l5.72,2.077a4.329,4.329,0,0,0-1.448-1.939Z" transform="translate(-324.789 2268.392)" fill="#3f3d56"/><path d="M575.108,379.831l2.859-2.287a3.029,3.029,0,0,0-3.507,1.925,4.87,4.87,0,0,0-3.624.224l5.72,2.077a4.328,4.328,0,0,0-1.448-1.939Z" transform="translate(-145.351 2191.27)" fill="#3f3d56"/></g><path d="M890.563,431.533a22.027,22.027,0,1,0-42.279,8.672l-.065-.071a22.046,22.046,0,0,0,4.012,6.208l.015.016c.135.147.271.294.411.438a21.96,21.96,0,0,0,15.536,6.76l-.744,40.427h2.3l-.465-26.682,3.326-1.751-.507-.964-2.84,1.5-.219-12.527a22.027,22.027,0,0,0,21.521-22.02Z" transform="translate(-454.531 2241.593)" fill="#e6e6e6"/><path d="M905.77,439.134A29.63,29.63,0,1,0,848.9,450.8l-.088-.1a29.658,29.658,0,0,0,5.4,8.351l.02.022c.182.2.365.4.552.589a29.54,29.54,0,0,0,20.9,9.093l-1,54.383h3.093l-.626-35.893,4.475-2.356-.683-1.3-3.821,2.011-.294-16.851A29.63,29.63,0,0,0,905.77,439.134Z" transform="translate(-543.98 2204.603)" fill="#e6e6e6"/><path d="M194.722,302.6a19.2,19.2,0,1,0-36.854,7.559l-.057-.062a19.217,19.217,0,0,0,3.5,5.411l.013.014c.118.129.237.256.358.382a19.142,19.142,0,0,0,13.542,5.892l-.649,35.239h2l-.406-23.258,2.9-1.526-.442-.84-2.476,1.3-.19-10.919A19.2,19.2,0,0,0,194.722,302.6Z" transform="translate(1459.543 2377.585)" fill="#e6e6e6"/><path d="M182.941,296.716a13.31,13.31,0,1,0-25.547,5.24l-.039-.043a13.322,13.322,0,0,0,2.424,3.751l.009.01c.082.089.164.178.248.265a13.269,13.269,0,0,0,9.387,4.085l-.45,24.428h1.389l-.281-16.123,2.01-1.058-.307-.582-1.716.9-.132-7.569A13.309,13.309,0,0,0,182.941,296.716Z" transform="translate(1577.328 2417.031)" fill="#e6e6e6"/><g transform="translate(77 10.275)"><circle cx="38.502" cy="38.502" r="38.502" transform="translate(255.159 2568.508)" fill="#ffa990"/><path d="M239.048,187.616h.106l1.9,109.159h-4.02Z" transform="translate(54.719 2419.394)" fill="#3f3d56"/><rect width="7.193" height="1.904" transform="translate(293.526 2668.135) rotate(-27.766)" fill="#3f3d56"/></g><g transform="translate(1156.837 101.374)"><circle cx="25.779" cy="25.779" r="25.779" transform="translate(255.159 2568.508)" fill="#ffd781"/><path d="M238.384,187.616h.071l1.275,73.088h-2.691Z" transform="translate(42.625 2406.671)" fill="#3f3d56"/><rect width="4.816" height="1.275" transform="translate(280.847 2635.213) rotate(-27.766)" fill="#3f3d56"/></g><path d="M30,2931s294.2-125.116,489.817-73.739,503.186,68.5,671.319,70.06,411.816-80.013,507.442-70.06S1950,2931,1950,2931Z" transform="translate(-30 -125)" fill="#ececf9"/><g transform="translate(-158.364 -325.948)"><g transform="translate(616.33 2990.908)"><g transform="translate(0 0)"><g transform="translate(0.037 0.654)"><path d="M2.73,11.4A8.953,8.953,0,0,1,.349,4.966C.845-2.107,10.69-.551,12.605,3.019s1.688,12.624-.788,13.262c-.987.254-3.09-.369-5.23-1.659l1.343,9.5H0Z" transform="translate(0 0)" fill="#b28b67" fill-rule="evenodd"/></g><path d="M60.91,35.421q.455,6.344,2.409,6.344c1.954,0,3.612-1.241,4.469-1.241.625,0,.485.782.071,1.362-.342.478-2.006.94-2.006,1.681s1.315.168,1.315.608c0,.728.231,2.1-1.032,2.1-1.278,0-4.943-.466-5.571-2.363A33.041,33.041,0,0,1,59.78,36.3a1.984,1.984,0,0,0-2.219,1.969,1.977,1.977,0,0,0,.6,1.418c-.459.648-.973,1.324-1.562,2.022-2.214-1.328-3.856-5.216-1.692-8.95A4.9,4.9,0,0,1,58.456,29.5a5.752,5.752,0,0,1,3.776-.278,12.285,12.285,0,0,1,4.776,1.272c0,2.107-.408,2.732-3.9,2.677A6.432,6.432,0,0,0,60.91,35.421Z" transform="translate(-53.889 -29.02)" fill="#191847" fill-rule="evenodd"/></g></g><g transform="translate(597.019 3005.581)"><path d="M587.066,802.6l6.466,2.4h0a4.4,4.4,0,0,1,2.59,5.652l-.05.134-10.587-3.933Z" transform="translate(-585.485 -710.417)" fill="#525ba9"/><path d="M685.927,813.469h6.9a4.4,4.4,0,0,1,4.4,4.4v.143H685.927Z" transform="translate(-652.203 -718.641)" fill="#525ba9"/><path d="M10.956,3.656h0L5.827,3.084l-10.3-37.419L-21.944,1.91-26.929-.084l11.6-36.536,1.714-13.428c0-.018,1.481-9.49,4.285-12l-.151-.452H3.387l0,.024L6.735-44.91l3.176,23.94L10.956,3.655Z" transform="translate(28.415 92.621)" fill="#75725a"/><path d="M-11.734-94.8l1.655-7.2v-3.168l-3.028-15.116,2.876-6.429L-9.02-129l10.294,4.856-.3,2c2,2.446,2.858,6.905,2.545,9.857l.468,5.428L4.87-94.076S-11.936-94.628-11.734-94.8Z" transform="translate(27.987 129)" fill="#525ba9"/><path d="M599.437,545.782c.085,2.257.254,6.7.254,6.926s3.368,7.212,4.823,10.213v0c.1.212.2.4.279.572a1.353,1.353,0,0,0,1.243.764l6.358-.114a1.355,1.355,0,0,0,1.332-1.321l.709-27.973a.691.691,0,0,0-.691-.709h-8.2a1.843,1.843,0,0,0-1.659,1.041l-3.936,8.142a5.2,5.2,0,0,0-.513,2.458Z" transform="translate(-594.75 -532.094)" fill="#b29db3"/><path d="M641.312,563.422a18.222,18.222,0,0,0,4.344-3.672,20.149,20.149,0,0,0,5.021-11.714c.323-3.717-.414-6.481-2.193-8.213a7.236,7.236,0,0,0-5.466-1.868l-.138.016-2.084,1.764.59.7,1.865-1.578a6.372,6.372,0,0,1,4.6,1.63c1.567,1.533,2.21,4.047,1.913,7.473A19.242,19.242,0,0,1,645,559.116a17.683,17.683,0,0,1-4.127,3.505Z" transform="translate(-622.226 -534.611)" fill="#b29db3"/><rect width="0.304" height="11.342" transform="matrix(0.201, -0.98, 0.98, 0.201, 7.191, 18.481)" fill="#3f3d56"/><rect width="17.692" height="0.304" transform="matrix(0.041, -0.999, 0.999, 0.041, 13.855, 19.717)" fill="#3f3d56"/><path d="M599.436,566.271c.085,2.257.254,6.7.254,6.926s3.368,7.212,4.823,10.213L601.8,567.664a3.471,3.471,0,0,0-2.254-2.677A5.086,5.086,0,0,0,599.436,566.271Z" transform="translate(-594.749 -552.583)" fill="#3f3d56"/><path d="M647.957,644.645a2.679,2.679,0,0,1,.871-4.015l-.551-6.1,3.623-1.239.657,8.621a2.694,2.694,0,0,1-4.6,2.729Z" transform="translate(-626.608 -597.956)" fill="#b28b67"/><path d="M641.982,548.657a4.18,4.18,0,0,1,2.828-4.278,3.8,3.8,0,0,1,2.388,0,4.18,4.18,0,0,1,2.832,3.978l.272,30.964-6.421.233Z" transform="translate(-623.005 -538.767)" fill="#525ba9"/></g></g><g transform="translate(601.307 -298.787)"><g transform="translate(733.67 2984.166)"><g transform="translate(9.846 0)"><g transform="translate(0)"><g transform="translate(1.765 4.286)"><path d="M8.506,8.7a6.83,6.83,0,0,0,1.817-4.907C9.944-1.607,2.433-.42.972,2.3s-1.287,9.631.6,10.117c.753.194,2.357-.281,3.99-1.265L4.538,18.4h6.051Z" transform="translate(0 0)" fill="#b28b67" fill-rule="evenodd"/></g><path d="M30.057,16.814a1.309,1.309,0,0,1,.917-.929,1.208,1.208,0,0,1,.337-.034c.041,0,.052.013.071-.015a.374.374,0,0,0,.02-.1,1.835,1.835,0,0,1,.068-.227,1.854,1.854,0,0,1,.447-.665,2.251,2.251,0,0,1,1.352-.64,1.971,1.971,0,0,1,.813.111,3.219,3.219,0,0,1,.395.169c.038.019.163.114.2.108s.128-.113.163-.139A2.39,2.39,0,0,1,36.335,14a2.733,2.733,0,0,1,1.687.4,3.377,3.377,0,0,1,.3.253c.051.047.1.1.147.147.028.031.056.062.082.095.045.055.038.073.1.035a1.254,1.254,0,0,1,.805-.181,1.8,1.8,0,0,1,.486.137c.053.023.175.113.231.113s.176-.083.234-.1a1.916,1.916,0,0,1,.971-.09,2.508,2.508,0,0,1,.952.374,1.28,1.28,0,0,1,.353.321c.042.057.079.118.126.171.028.031.082.063.1.1a2.092,2.092,0,0,1,.4-.178.994.994,0,0,1,.568.022,2.259,2.259,0,0,1,.9.636,2.544,2.544,0,0,1,.332.445q.068.115.124.236a.881.881,0,0,0,.054.123c.031.045.052.046.108.066a1.747,1.747,0,0,1,.744.5,1.715,1.715,0,0,1,.385.817.415.415,0,0,0,.015.1c.014.013.072.007.093.01a1.966,1.966,0,0,1,.224.039,1.847,1.847,0,0,1,.393.141,2.054,2.054,0,0,1,1.007,1.2,2.439,2.439,0,0,1-.038,1.67,1.631,1.631,0,0,1-.124.245c-.03.048-.039.048-.02.1s.061.11.086.164a2.357,2.357,0,0,1,.178.558,2.618,2.618,0,0,1,.031.965,1.393,1.393,0,0,1-.149.424,1.216,1.216,0,0,1-.131.189c-.026.031-.053.06-.081.088a.54.54,0,0,0-.052.048c-.034.043-.041.008-.023.072a2.864,2.864,0,0,0,.114.264c.035.09.066.18.1.272a4.014,4.014,0,0,1,.139.567,1.779,1.779,0,0,1-.126,1.1,1.1,1.1,0,0,1-.311.371,1.159,1.159,0,0,1-.2.124c-.037.018-.084.025-.1.061s.009.115.015.158a2.639,2.639,0,0,1-.031,1.137,1.571,1.571,0,0,1-.623.836,1.937,1.937,0,0,1-1.936.055,2.033,2.033,0,0,1-.432-.3,1.426,1.426,0,0,1-1.5.305,2.153,2.153,0,0,1-1.367-1.13.911.911,0,0,1-1.447-.19,1.206,1.206,0,0,1-.122-.4c-.01-.072,0-.145-.011-.217a1.121,1.121,0,0,0-.106-.269,1.484,1.484,0,0,1-.113-.536,2.723,2.723,0,0,1,.021-.288.989.989,0,0,0-.029-.253,1.155,1.155,0,0,0,.489-.061.966.966,0,0,0,.378-.266,2.207,2.207,0,0,0,.476-.89,1.579,1.579,0,0,0-.582-1.937,3.652,3.652,0,0,0-1.713-.091c-.414.094-.882,1.006-.905,1.092-.014.053-.007.119-.056.154-.107.078-.284-.057-.363-.124a1.431,1.431,0,0,1-.318-.423,5.233,5.233,0,0,1-.436-1.07c-.081-.285-.132-.579-.238-.857a1.311,1.311,0,0,0-.527-.68,4.643,4.643,0,0,0-.907-.367,2.251,2.251,0,0,1-.839-.461,1.158,1.158,0,0,1-.144-.16c-.033-.046-.066-.134-.116-.163-.078-.045-.192.073-.259.115a3,3,0,0,0-.835.828,5.154,5.154,0,0,0-.554.986,2.852,2.852,0,0,1-.373.823,1.572,1.572,0,0,1-.938.071,1.184,1.184,0,0,1-.512-.443.688.688,0,0,1-.058-.451c.018-.091.055-.176.075-.265a.824.824,0,0,1,.069-.215.529.529,0,0,1,.33-.263,1.552,1.552,0,0,1-.356-.483,2.077,2.077,0,0,1-.185-.63.765.765,0,0,1,.1-.491,1.292,1.292,0,0,1,.419-.348,2.72,2.72,0,0,1-.583-.635A1.982,1.982,0,0,1,30.057,16.814Z" transform="translate(-30 -14)" fill="#191847" fill-rule="evenodd"/></g></g><g transform="translate(0 16.016)"><path d="M593.969,802.6l-5.878,2.184h0a4,4,0,0,0-2.354,5.138l.045.121,9.624-3.576Z" transform="translate(-554.481 -718.798)" fill="#a95252"/><path d="M696.194,813.469h-6.271a4,4,0,0,0-4,4v.13h10.267Z" transform="translate(-685.927 -727.262)" fill="#a95252"/><path d="M-12.045-101.617H.209c-.176-.178-.354-.347-.527-.5l.778-2.338v-2.88l2.6-13.742L.592-126.923-.447-129l-8.831,4.415.26,1.818-1.688,2.207c-.029.016-2.606,4.07-1.818,11.688l.649,6.364-.17.89Z" transform="translate(24.339 129)" fill="#a95252"/><path d="M-26.929-2.358h0l4.661-.52L-12.9-36.9,2.98-3.945,7.512-5.758-3.035-38.973-4.593-51.18c0-.016-1.346-8.628-3.9-10.909l.137-.411h-11.7l0,.021-3.045,15.969L-25.98-24.745l-.949,22.386Z" transform="translate(32.062 89.882)" fill="#292753"/><path d="M613.068,544.724c-.077,2.052-.231,6.09-.231,6.3s-3.062,6.556-4.385,9.285h0c-.094.192-.178.367-.253.52a1.231,1.231,0,0,1-1.13.694l-5.78-.1a1.232,1.232,0,0,1-1.211-1.2l-.645-25.43a.629.629,0,0,1,.628-.645h7.454a1.676,1.676,0,0,1,1.508.946l3.578,7.4a4.728,4.728,0,0,1,.466,2.234Z" transform="translate(-576.403 -532.281)" fill="#9db39d"/><path d="M649.378,561.1a16.568,16.568,0,0,1-3.949-3.338,18.316,18.316,0,0,1-4.565-10.649c-.294-3.38.377-5.892,1.993-7.467a6.578,6.578,0,0,1,4.969-1.7l.125.014,1.895,1.6-.536.633-1.7-1.434a5.793,5.793,0,0,0-4.185,1.482c-1.424,1.393-2.009,3.679-1.739,6.793a17.493,17.493,0,0,0,4.337,10.145,16.077,16.077,0,0,0,3.751,3.187Z" transform="translate(-625.804 -534.913)" fill="#9db39d"/><rect width="0.277" height="10.31" transform="matrix(-0.201, -0.98, 0.98, -0.201, 24.288, 18.875)" fill="#3f3d56"/><rect width="16.084" height="0.277" transform="translate(28.054 17.936) rotate(-92.337)" fill="#3f3d56"/><path d="M604.047,566.154c-.078,2.052-.231,6.09-.231,6.3s-3.062,6.556-4.384,9.284L601.9,567.42a3.155,3.155,0,0,1,2.049-2.434A4.629,4.629,0,0,1,604.047,566.154Z" transform="translate(-567.383 -553.711)" fill="#3f3d56"/><path d="M651.788,643.613a2.436,2.436,0,0,0-.792-3.65l.5-5.543-3.294-1.126-.6,7.837a2.449,2.449,0,0,0,4.183,2.481Z" transform="translate(-630.271 -601.169)" fill="#b28b67"/><path d="M649.532,548.251a3.8,3.8,0,0,0-2.571-3.889,3.453,3.453,0,0,0-2.171,0,3.8,3.8,0,0,0-2.574,3.617l-.247,28.149,5.837.212Z" transform="translate(-625.859 -539.26)" fill="#a95252"/></g></g></g><g transform="translate(10.362 6.603)"><g transform="matrix(0.695, -0.719, 0.719, 0.695, 496.918, 2651.822)"><path d="M0,7.082,8.382,3.4A19.855,19.855,0,0,1,12.635.065c.409-.13,1.107-.17.362.919s-1.48,2.267-1.182,2.649,1.161-.04,1.5.581q.341.62-4.362,1.484L2.676,10.511Z" transform="translate(24.501 0)" fill="#ffcdcd" fill-rule="evenodd"/><path d="M.011,3.836A3.587,3.587,0,0,1,2.437.164a3.26,3.26,0,0,1,2.05,0A3.587,3.587,0,0,1,6.917,3.58L7.15,30.155l-5.51.2Z" transform="matrix(-0.259, -0.966, 0.966, -0.259, 1.851, 18.698)" fill="#cbcbcb"/></g><path d="M63.765,32.216c.983,3.622,2.264,11.764.957,13.042h-8.27l0-.044A6.132,6.132,0,0,1,51,39.12V33.131A6.131,6.131,0,0,1,57.131,27h.57A6.133,6.133,0,0,1,63.765,32.216Z" transform="translate(460.013 2601.13) rotate(7)" fill="#cec091" fill-rule="evenodd"/><path d="M2.356,9.836A7.725,7.725,0,0,1,.3,4.285C.73-1.818,9.225-.475,10.877,2.6S12.334,13.5,10.2,14.049c-.852.22-2.666-.318-4.513-1.431l1.159,8.2H0Z" transform="translate(508.052 2635.381) rotate(7)" fill="#ffcdcd" fill-rule="evenodd"/><g transform="translate(-4 0.059)"><path d="M398.156,727.465l3.268,1.214,6.238-12.028-4.823-1.792Z" transform="translate(93.239 2015.128)" fill="#ffcdcd"/><path d="M587.058,802.6l6.436,2.391h0a4.376,4.376,0,0,1,2.577,5.626l-.05.133-10.538-3.915Z" transform="translate(-96.101 1938.616)" fill="#2f2e41"/><path d="M494.391,735.942h3.486l1.659-13.447H494.39Z" transform="translate(29.166 2010.044)" fill="#ffcdcd"/><path d="M685.927,813.469h6.866a4.376,4.376,0,0,1,4.375,4.375v.142H685.927Z" transform="translate(-162.975 1931.38)" fill="#2f2e41"/><path d="M602.866,533.273,604,531l9.669,4.834-.284,1.99,1.849,2.417s3.128,1.706,2.559,7.394l-.569,5.4L616.516,560l4.977,17.2,2.559,22.75L625.9,618.3l-8.958-.426L608.7,588.015l-14.5,32.135-9.953-2.559,13.65-31.85,1.706-13.366s-1.137-7.109,4.266-11.944l-.853-2.559v-3.154l-2.844-15.046Z" transform="translate(-95.272 2119.449)" fill="#2f2e41"/><path d="M599.437,545.728c.085,2.246.253,6.668.253,6.894s3.352,7.179,4.8,10.166v0c.1.211.2.4.277.57a1.347,1.347,0,0,0,1.238.76l6.329-.114a1.349,1.349,0,0,0,1.325-1.315l.706-27.844a.688.688,0,0,0-.688-.706h-8.162a1.835,1.835,0,0,0-1.651,1.036l-3.917,8.1a5.179,5.179,0,0,0-.51,2.446Z" transform="translate(-105.388 2117.356)" fill="#6c63ff"/><path d="M641.309,563.3a18.135,18.135,0,0,0,4.324-3.655,20.055,20.055,0,0,0,5-11.66c.322-3.7-.413-6.451-2.182-8.175a7.2,7.2,0,0,0-5.441-1.859l-.137.016-2.075,1.755.587.694,1.856-1.571a6.342,6.342,0,0,1,4.583,1.623c1.56,1.526,2.2,4.028,1.9,7.438a19.152,19.152,0,0,1-4.748,11.108,17.6,17.6,0,0,1-4.107,3.489Z" transform="translate(-132.928 2114.833)" fill="#6c63ff"/><rect width="0.303" height="11.289" transform="matrix(0.201, -0.98, 0.98, 0.201, 496.542, 2667.855)" fill="#3f3d56"/><rect width="17.61" height="0.303" transform="matrix(0.041, -0.999, 0.999, 0.041, 503.174, 2669.086)" fill="#3f3d56"/><path d="M599.436,566.265c.085,2.247.253,6.668.253,6.894s3.352,7.179,4.8,10.166l-2.7-15.674a3.455,3.455,0,0,0-2.243-2.665A5.071,5.071,0,0,0,599.436,566.265Z" transform="translate(-105.387 2096.82)" fill="#3f3d56"/><path d="M647.954,644.593a2.667,2.667,0,0,1,.867-4l-.549-6.069,3.607-1.233.654,8.581a2.681,2.681,0,0,1-4.58,2.716Z" transform="translate(-137.32 2051.34)" fill="#ffcdcd"/><path d="M641.982,548.636a4.161,4.161,0,0,1,2.814-4.258,3.781,3.781,0,0,1,2.377,0,4.161,4.161,0,0,1,2.818,3.96l.27,30.82-6.391.232Z" transform="translate(-133.708 2110.667)" fill="#cbcbcb"/></g><path d="M46.054,37.66c.315,3.387.189,7.255-.751,8.174h-8.27c-.461-8.006,3.992-4.906,3.992-12.443.278-.271.54-.54.8-.771l-.009-.222q2.148-4.4,5.45-4.4A5.417,5.417,0,0,1,52.5,30.841c-.664,2.277-3.239,2.615-5.527,4.034a1.568,1.568,0,1,0-.988,2.786Z" transform="translate(470.033 2601.641) rotate(7)" fill="#cec091" fill-rule="evenodd"/></g><g transform="translate(209.931 -206.161)"><g transform="matrix(-0.695, -0.719, 0.719, -0.695, 1322.91, 2892.574)"><path d="M0,3.316l8.106,3.56A19.2,19.2,0,0,0,12.219,10.1c.4.126,1.071.164.35-.889S11.138,7.02,11.426,6.651s1.122.038,1.452-.562q.33-.6-4.219-1.435L2.588,0Z" transform="translate(23.695 7.918)" fill="#f7dab4" fill-rule="evenodd"/><path d="M.01,25.646A3.469,3.469,0,0,0,2.357,29.2a3.152,3.152,0,0,0,1.982,0,3.469,3.469,0,0,0,2.35-3.3L6.915.193,1.586,0Z" transform="matrix(-0.259, 0.966, -0.966, -0.259, 30.145, 7.598)" fill="#f5a3da"/></g><g transform="translate(1316.41 2861.049)"><g transform="translate(0 3.806)"><path d="M8.56,8.75a6.873,6.873,0,0,0,1.828-4.938C10.007-1.617,2.449-.423.978,2.317s-1.3,9.691.6,10.181c.758.2,2.372-.283,4.015-1.273l-1.031,7.3h6.089Z" transform="translate(0 0)" fill="#f7dab4" fill-rule="evenodd"/></g><path d="M43.545,19.752c-3.059-1.06-7.028.179-6.5,2.662.341,1.595,2.188,2.392,4.006,3.244a1.569,1.569,0,0,1,1.363-.778A1.543,1.543,0,0,1,43.979,26.4a1.487,1.487,0,0,1-.247.822,3.127,3.127,0,0,1,1.147,2c.985,0,2.578-2.893,2.052-5.638a3.848,3.848,0,0,0,.42.023,3.806,3.806,0,1,0-3.805-3.86Z" transform="translate(-36.187 -16)" fill="#191847" fill-rule="evenodd"/></g><g transform="translate(1305.245 2876.685)"><g transform="translate(0 0)"><path d="M594.077,802.6l-5.954,2.212h0a4.048,4.048,0,0,0-2.384,5.2l.046.123,9.748-3.621Z" transform="translate(-556.485 -717.724)" fill="#7e5a6c"/><path d="M696.326,813.469h-6.352a4.048,4.048,0,0,0-4.047,4.047v.132h10.4Z" transform="translate(-685.927 -726.157)" fill="#7e5a6c"/><path d="M-12.032-101.266H.38c-.178-.181-.358-.351-.533-.508l.788-2.368v-2.917l2.631-13.918L.767-126.9-.285-129l-8.944,4.471.263,1.842-1.71,2.235A4.326,4.326,0,0,0-12.057-119a8.381,8.381,0,0,0-.986,5.393l.526,5,.658,6.445-.172.9Z" transform="translate(23.394 129)" fill="#f5a3da"/><path d="M-26.929-1.587h0l4.4-.527,8.83-34.453L1.278-3.2,5.552-5.031l-9.946-33.64-1.47-12.364a14.472,14.472,0,0,0-.092-3.847,12.547,12.547,0,0,0-3.582-7.2l.129-.416H-20.44l0,.022L-23.31-46.3l-2.723,22.043-.9,22.673Z" transform="translate(32.128 90.233)" fill="#46203d"/><path d="M613.243,544.86c-.078,2.078-.234,6.168-.234,6.377s-3.1,6.64-4.441,9.4h0l-.256.527a1.246,1.246,0,0,1-1.145.7l-5.854-.105a1.248,1.248,0,0,1-1.226-1.216l-.653-25.756a.637.637,0,0,1,.636-.653h7.55a1.7,1.7,0,0,1,1.527.958l3.623,7.5a4.789,4.789,0,0,1,.472,2.263Z" transform="translate(-578.51 -532.257)" fill="#9f7cac"/><path d="M649.488,561.4a16.783,16.783,0,0,1-4-3.381,18.551,18.551,0,0,1-4.623-10.785c-.3-3.423.382-5.967,2.019-7.562a6.663,6.663,0,0,1,5.033-1.719l.127.014,1.919,1.624-.543.642L647.7,538.78a5.867,5.867,0,0,0-4.239,1.5c-1.443,1.411-2.035,3.726-1.761,6.88a17.717,17.717,0,0,0,4.392,10.275,16.28,16.28,0,0,0,3.8,3.228Z" transform="translate(-626.741 -534.875)" fill="#9f7cac"/><rect width="0.28" height="10.443" transform="matrix(-0.201, -0.98, 0.98, -0.201, 22.708, 19.117)" fill="#3f3d56"/><rect width="16.29" height="0.28" transform="translate(26.768 18.166) rotate(-92.337)" fill="#3f3d56"/><path d="M604.106,566.169c-.079,2.078-.234,6.168-.234,6.377s-3.1,6.64-4.441,9.4l2.5-14.5A3.2,3.2,0,0,1,604,564.987,4.687,4.687,0,0,1,604.106,566.169Z" transform="translate(-569.373 -553.566)" fill="#3f3d56"/><path d="M651.844,643.745a2.467,2.467,0,0,0-.8-3.7l.508-5.614-3.336-1.141-.605,7.938a2.48,2.48,0,0,0,4.236,2.513Z" transform="translate(-631.193 -600.757)" fill="#f7dab4"/><path d="M649.629,548.3a3.848,3.848,0,0,0-2.6-3.939,3.5,3.5,0,0,0-2.2,0,3.849,3.849,0,0,0-2.607,3.663l-.25,28.51,5.912.214Z" transform="translate(-626.812 -539.197)" fill="#f5a3da"/></g></g></g></g></svg>